<svg version="1.1" xmlns="http://www.w3.org/2000/svg" xmlns:xlink="http://www.w3.org/1999/xlink" width="24" height="24" viewBox="0,0,256,256"><g fill="#ffffff" fill-rule="nonzero" stroke="none" stroke-width="1" stroke-linecap="butt" stroke-linejoin="miter" stroke-miterlimit="10" stroke-dasharray="" stroke-dashoffset="0" font-family="none" font-weight="none" font-size="none" text-anchor="none" style="mix-blend-mode: normal"><g transform="scale(10.66667,10.66667)"><path d="M13.299,3.74c-0.207,-0.206 -0.299,-0.461 -0.299,-0.711c0,-0.524 0.407,-1.029 1.02,-1.029c0.262,0 0.522,0.1 0.721,0.298l3.783,3.783c-0.771,0.117 -1.5,0.363 -2.158,0.726zM17.219,18.58l-0.571,1.42h-9.296l-3.597,-8.961l-0.016,-0.039h9.441c0.171,-0.721 0.459,-1.395 0.848,-2h-14.028v2h0.643c0.535,0 1.021,0.304 1.256,0.784l4.101,10.216h12l1.21,-3.015c-0.698,-0.03 -1.367,-0.171 -1.991,-0.405zM10.701,3.74c0.207,-0.206 0.299,-0.461 0.299,-0.711c0,-0.524 -0.407,-1.029 -1.02,-1.029c-0.261,0 -0.522,0.1 -0.72,0.298l-4.701,4.702h2.883zM19.5,8c-2.484,0 -4.5,2.015 -4.5,4.5c0,2.485 2.016,4.5 4.5,4.5c2.482,0 4.5,-2.015 4.5,-4.5c0,-2.485 -2.018,-4.5 -4.5,-4.5zM22,13h-2v2h-1v-2h-2v-1h2v-2h1v2h2z"></path></g></g></svg>