<svg version="1.1" xmlns="http://www.w3.org/2000/svg" xmlns:xlink="http://www.w3.org/1999/xlink" width="24px" height="24px" viewBox="0,0,256,256"><g fill="#ffffff" fill-rule="nonzero" stroke="none" stroke-width="1" stroke-linecap="butt" stroke-linejoin="round" stroke-miterlimit="2" stroke-dasharray="" stroke-dashoffset="0" font-family="none" font-weight="none" font-size="none" text-anchor="none" style="mix-blend-mode: normal"><g transform="translate(-0.16,0) scale(10.66667,10.66667)"><path d="M4.015,5.494h-0.253c-0.413,0 -0.747,-0.335 -0.747,-0.747c0,-0.412 0.334,-0.747 0.747,-0.747h5.253v-1c0,-0.535 0.474,-1 1,-1h4c0.526,0 1,0.465 1,1v1h5.254c0.412,0 0.746,0.335 0.746,0.747c0,0.412 -0.334,0.747 -0.746,0.747h-0.254v15.435c0,0.591 -0.448,1.071 -1,1.071c-2.873,0 -11.127,0 -14,0c-0.552,0 -1,-0.48 -1,-1.071zM18.515,5.494h-13v15.006h13zM14.265,8c-0.414,0 -0.75,0.336 -0.75,0.75v8.5c0,0.414 0.336,0.75 0.75,0.75c0.414,0 0.75,-0.336 0.75,-0.75v-8.5c0,-0.414 -0.336,-0.75 -0.75,-0.75zM9.765,8c-0.414,0 -0.75,0.336 -0.75,0.75v8.5c0,0.414 0.336,0.75 0.75,0.75c0.414,0 0.75,-0.336 0.75,-0.75v-8.5c0,-0.414 -0.336,-0.75 -0.75,-0.75zM13.515,4v-0.5h-3v0.5z"></path></g></g></svg>